<svg width="20" height="20" viewBox="0 0 20 20" fill="none" xmlns="http://www.w3.org/2000/svg">
<path d="M13.3333 0C12.8076 0 12.381 0.426667 12.381 0.952381C12.381 1.4781 12.8076 1.90476 13.3333 1.90476H16.7485L8.85045 9.80283C8.47854 10.1747 8.47854 10.7776 8.85045 11.1496C9.03664 11.3357 9.28 11.4286 9.52381 11.4286C9.76762 11.4286 10.011 11.3357 10.1972 11.1496L18.0952 3.25149V6.66667C18.0952 7.19238 18.5219 7.61905 19.0476 7.61905C19.5733 7.61905 20 7.19238 20 6.66667V0.952381C20 0.426667 19.5733 0 19.0476 0H13.3333ZM2.85714 0.952381C1.28143 0.952381 0 2.23381 0 3.80952V17.1429C0 18.7186 1.28143 20 2.85714 20H16.1905C17.7662 20 19.0476 18.7186 19.0476 17.1429V11.4286C19.0476 10.9029 18.621 10.4762 18.0952 10.4762C17.5695 10.4762 17.1429 10.9029 17.1429 11.4286V17.1429C17.1429 17.6681 16.7157 18.0952 16.1905 18.0952H2.85714C2.3319 18.0952 1.90476 17.6681 1.90476 17.1429V3.80952C1.90476 3.28429 2.3319 2.85714 2.85714 2.85714H8.57143C9.09714 2.85714 9.52381 2.43048 9.52381 1.90476C9.52381 1.37905 9.09714 0.952381 8.57143 0.952381H2.85714Z" fill="white"/>
</svg>
