<svg width="43" height="45" viewBox="0 0 43 45" fill="none" xmlns="http://www.w3.org/2000/svg">
<path d="M36.7292 4.6875H6.27084L8.95834 36.5625L21.5 40.3125L34.0417 36.5625L36.7292 4.6875Z" fill="#0277BD"/>
<path d="M21.5 7.5V37.4063L31.5333 34.4062L33.7729 7.5H21.5Z" fill="#039BE5"/>
<path d="M29.6521 12.1875H21.5V15.9375H25.8896L25.6208 19.6875H21.5V23.4375H25.4417L25.1729 27.6562L21.5 28.9688V32.9062L28.5771 30.4688L29.2042 19.6875L29.6521 12.1875Z" fill="white"/>
<path d="M21.5 12.1875V15.9375H13.5271L13.2583 12.1875H21.5ZM17.3792 19.6875L17.5583 23.4375H21.5V19.6875H17.3792ZM17.7375 25.3125H14.1542L14.4229 30.4688L21.5 32.9062V28.9688L17.8271 27.6562L17.7375 25.3125Z" fill="#EEEEEE"/>
</svg>
