<svg width="36" height="35" viewBox="0 0 36 35" fill="none" xmlns="http://www.w3.org/2000/svg">
<g clip-path="url(#clip0_11_28)">
<path d="M18 0C8.061 0 0 7.83562 0 17.5C0 25.2321 5.157 31.7917 12.3105 34.106C13.209 34.2679 13.5 33.7254 13.5 33.2646V30.0067C8.493 31.0654 7.4505 27.9417 7.4505 27.9417C6.6315 25.919 5.451 25.3808 5.451 25.3808C3.8175 24.2944 5.5755 24.3177 5.5755 24.3177C7.383 24.4402 8.334 26.1217 8.334 26.1217C9.939 28.7962 12.5445 28.0233 13.572 27.5756C13.7325 26.4454 14.199 25.6725 14.715 25.2365C10.7175 24.7917 6.5145 23.291 6.5145 16.5871C6.5145 14.6752 7.218 13.1148 8.3685 11.8898C8.1825 11.4479 7.566 9.66729 8.544 7.25812C8.544 7.25812 10.056 6.78854 13.4955 9.05187C14.931 8.66396 16.47 8.47 18 8.46271C19.53 8.47 21.0705 8.66396 22.509 9.05187C25.9455 6.78854 27.4545 7.25812 27.4545 7.25812C28.434 9.66875 27.8175 11.4494 27.6315 11.8898C28.7865 13.1148 29.484 14.6767 29.484 16.5871C29.484 23.3085 25.2735 24.7887 21.2655 25.2219C21.9105 25.7644 22.5 26.829 22.5 28.4623V33.2646C22.5 33.7298 22.788 34.2767 23.7015 34.1046C30.849 31.7873 36 25.2292 36 17.5C36 7.83562 27.9405 0 18 0Z" fill="#0DD55A"/>
</g>
<defs>
<clipPath id="clip0_11_28">
<rect width="36" height="35" fill="white"/>
</clipPath>
</defs>
</svg>
