<svg width="43" height="45" viewBox="0 0 43 45" fill="none" xmlns="http://www.w3.org/2000/svg">
<path d="M36.7292 4.6875H6.27083L8.95833 36.5625L21.5 40.3125L34.0417 36.5625L36.7292 4.6875Z" fill="#E65100"/>
<path d="M21.5 7.5V37.4063L31.5333 34.4062L33.7729 7.5H21.5Z" fill="#FF6D00"/>
<path d="M21.5 23.4375V19.6875H29.2042L28.5771 30.4688L21.5 32.9062V28.9688L25.1729 27.6562L25.4417 23.4375H21.5ZM29.4729 15.9375L29.7417 12.1875H21.5V15.9375H29.4729Z" fill="white"/>
<path d="M21.5 28.9688V32.9062L14.4229 30.4688L14.0646 25.3125H17.6479L17.8271 27.6562L21.5 28.9688ZM17.1104 15.9375H21.5V12.1875H13.3479L13.975 23.4375H21.5V19.6875H17.3792L17.1104 15.9375Z" fill="#EEEEEE"/>
</svg>
