<svg width="43" height="45" viewBox="0 0 43 45" fill="none" xmlns="http://www.w3.org/2000/svg">
<path d="M5.375 39.375V5.625H37.625V39.375H5.375Z" fill="#F7DF1E"/>
<path d="M26.4611 30.8878C27.081 31.9416 27.7547 32.9512 29.1818 32.9512C30.3804 32.9512 31.0093 32.3278 31.0093 31.4653C31.0093 30.4331 30.3589 30.0666 29.0402 29.4656L28.3173 29.1431C26.2309 28.2169 24.8433 27.0563 24.8433 24.6047C24.8433 22.3453 26.4961 20.6259 29.0788 20.6259C30.9179 20.6259 32.2393 21.2925 33.1924 23.0381L30.9403 24.5447C30.4449 23.6184 29.9092 23.2538 29.0788 23.2538C28.2313 23.2538 27.6947 23.8134 27.6947 24.5447C27.6947 25.4484 28.2322 25.8141 29.4729 26.3737L30.1959 26.6962C32.6549 27.7922 34.0417 28.9116 34.0417 31.4278C34.0417 34.1391 31.9956 35.625 29.249 35.625C26.5624 35.625 25.0368 34.2141 24.1875 32.4675L26.4611 30.8878ZM16.082 30.9647C16.5353 31.8141 17.2242 32.4675 18.215 32.4675C19.1628 32.4675 19.7083 32.0756 19.7083 30.5522V20.625H22.6941V31.0322C22.6941 34.1888 20.9446 35.625 18.3897 35.625C16.0811 35.625 14.4149 33.9881 13.7358 32.4675L16.082 30.9647Z" fill="#000001"/>
</svg>
