<svg width="35" height="35" viewBox="0 0 35 35" fill="none" xmlns="http://www.w3.org/2000/svg">
<g clip-path="url(#clip0_11_4)">
<path d="M30.94 -0.139994H4.06002C1.74162 -0.139994 -0.139984 1.74161 -0.139984 4.06001V30.94C-0.139984 33.2584 1.74162 35.14 4.06002 35.14H30.94C33.2584 35.14 35.14 33.2584 35.14 30.94V4.06001C35.14 1.74161 33.2584 -0.139994 30.94 -0.139994ZM10.78 13.3V29.26H5.74002V13.3H10.78ZM5.74002 8.65481C5.74002 7.47881 6.74802 6.58001 8.26002 6.58001C9.77202 6.58001 10.7212 7.47881 10.78 8.65481C10.78 9.83081 9.83922 10.78 8.26002 10.78C6.74802 10.78 5.74002 9.83081 5.74002 8.65481ZM29.26 29.26H24.22C24.22 29.26 24.22 21.4816 24.22 20.86C24.22 19.18 23.38 17.5 21.28 17.4664H21.2128C19.18 17.4664 18.34 19.1968 18.34 20.86C18.34 21.6244 18.34 29.26 18.34 29.26H13.3V13.3H18.34V15.4504C18.34 15.4504 19.9612 13.3 23.2204 13.3C26.5552 13.3 29.26 15.5932 29.26 20.2384V29.26Z" fill="#0DD55A"/>
</g>
<defs>
<clipPath id="clip0_11_4">
<rect width="35" height="35" fill="white"/>
</clipPath>
</defs>
</svg>
