<svg width="43" height="45" viewBox="0 0 43 45" fill="none" xmlns="http://www.w3.org/2000/svg">
<path d="M20.6042 3.75C14.6764 3.75 9.85417 10.5656 9.85417 18.9422C9.85417 23.4741 11.2714 27.5381 13.5074 30.3197C13.4644 30.5194 13.4375 30.7247 13.4375 30.9375C13.4375 32.4909 14.6406 33.75 16.125 33.75C17.6094 33.75 18.8125 32.4909 18.8125 30.9375C18.8125 29.3841 17.6094 28.125 16.125 28.125C15.8428 28.125 15.5768 28.1831 15.3214 28.2675C13.622 25.9978 12.5417 22.6641 12.5417 18.9422C12.5417 12.1163 16.1582 6.5625 20.6042 6.5625C24.0415 6.5625 26.9744 9.88781 28.1328 14.5481C29.1379 14.8725 30.1367 15.2812 31.1159 15.7744C30.0812 8.91375 25.7633 3.75 20.6042 3.75Z" fill="#7E57C2"/>
<path d="M31.8084 18.8287C28.2725 16.5862 24.3066 15.6019 20.8953 16.0547C20.4026 15.4163 19.6573 15 18.8125 15C17.3281 15 16.125 16.2591 16.125 17.8125C16.125 19.3659 17.3281 20.625 18.8125 20.625C19.952 20.625 20.9204 19.8797 21.311 18.8325C24.1042 18.4772 27.4134 19.3303 30.4153 21.2353C36.1514 24.8737 39.078 31.1438 36.9388 35.2144C36.1979 36.6244 34.8909 37.6256 33.1602 38.1113C31.1123 38.6841 28.6747 38.4806 26.2381 37.6163C25.4865 38.34 24.6712 39.0206 23.7969 39.6488C26.0831 40.6959 28.4517 41.2463 30.6671 41.2463C31.7779 41.2463 32.8511 41.1084 33.8553 40.8272C36.3108 40.14 38.1921 38.6672 39.2939 36.5691C42.1185 31.1963 38.76 23.2378 31.8084 18.8287Z" fill="#7E57C2"/>
<path d="M31.3542 27.18C31.3542 25.6312 30.1511 24.375 28.6667 24.375C27.1823 24.375 25.9792 25.6312 25.9792 27.18C25.9792 27.8072 26.1834 28.3809 26.5167 28.8478C25.3709 31.4747 23.1627 34.0669 20.1903 35.9522C16.7279 38.1497 12.8579 38.9541 9.83894 38.1103C8.10819 37.6247 6.80117 36.6234 6.06032 35.2134C4.53561 32.3128 5.59359 28.2984 8.39844 24.9122C8.10909 23.8397 7.89499 22.7184 7.76599 21.5606C3.22411 26.0578 1.39751 32.1759 3.70607 36.5691C4.80794 38.6672 6.68919 40.14 9.14467 40.8272C10.1489 41.1084 11.2212 41.2462 12.3329 41.2462C15.3304 41.2462 18.61 40.245 21.5833 38.3587C25.0197 36.1791 27.5702 33.1303 28.9372 29.9569C30.2926 29.8134 31.3542 28.6322 31.3542 27.18Z" fill="#7E57C2"/>
</svg>
