<svg width="40" height="40" viewBox="0 0 40 40" fill="none" xmlns="http://www.w3.org/2000/svg">
<path d="M20 0C31.0459 0 40 8.95412 40 20C40 31.0459 31.0459 40 20 40C8.95412 40 0 31.0459 0 20C0 8.95412 8.95412 0 20 0ZM26.8988 28.1529C27.2659 27.0247 28.9906 15.7753 29.2024 13.5588C29.2671 12.8871 29.0541 12.4412 28.64 12.2424C28.1376 12.0012 27.3929 12.1212 26.5294 12.4329C25.3447 12.86 10.2047 19.2882 9.32941 19.6612C8.50118 20.0141 7.71529 20.3976 7.71529 20.9553C7.71529 21.3471 7.94824 21.5671 8.58824 21.7953C9.25412 22.0329 10.9318 22.5412 11.9224 22.8141C12.8765 23.0776 13.9624 22.8494 14.5706 22.4706C15.2153 22.0694 22.6624 17.0871 23.1965 16.6506C23.7306 16.2141 24.1565 16.7729 23.72 17.2106C23.2835 17.6471 18.1729 22.6082 17.4976 23.2953C16.6788 24.1294 17.26 24.9929 17.8094 25.34C18.4365 25.7353 22.9447 28.7588 23.6247 29.2447C24.3047 29.7294 24.9918 29.9494 25.6235 29.9494C26.2541 29.9482 26.5847 29.1165 26.8988 28.1529Z" fill="white"/>
</svg>
